<svg width="20" height="20" viewBox="0 0 20 20" fill="none" xmlns="http://www.w3.org/2000/svg">
<g clip-path="url(#clip0)">
<path d="M14.035 6.42859H5.96582L10.0004 9.88684L14.035 6.42859Z" fill="#D52B1E"/>
<path d="M10.0003 10.7143C9.915 10.7143 9.83252 10.6838 9.76782 10.6281L5.35742 6.84778V13.5714H14.6431V6.84778L10.2327 10.6281C10.168 10.6838 10.0856 10.7143 10.0003 10.7143Z" fill="#D52B1E"/>
<path d="M10.2237 0.0222703C8.04203 0.0222712 5.50045 0.000135221 4.00045 0.000135211C1.21548 0.000135192 0.000506551 2.50014 0.000481894 3.99997C-0.010161 4.61766 0.000459125 9.2832 0.000459125 9.99995C0.000459125 11.1206 -0.0159548 15.116 0.000459125 16.0001C0.000488281 18.5001 2.00049 20.0001 4.00049 20.0001C6.06334 20.0001 14.7008 20.0622 16.0005 20.0001C18.5005 20.0001 19.9868 17.8661 20.0005 16.0001C20.005 15.3822 20.0005 10.7167 20.0005 9.99995C20.0005 9.28517 20.0099 4.61928 20.0005 3.99979C19.9523 0.828663 17.316 -0.000239349 16.0005 0.00012207C14.685 0.00048349 12.182 0.0222695 10.2237 0.0222703ZM15.3576 13.9285C15.3576 14.1257 15.1977 14.2857 15.0005 14.2857H5.00046C4.80323 14.2857 4.64332 14.1257 4.64332 13.9285V6.07138C4.64332 5.87415 4.80323 5.71424 5.00046 5.71424H15.0005C15.1977 5.71424 15.3576 5.87415 15.3576 6.07138V13.9285Z" fill="#D52B1E"/>
</g>
<defs>
<clipPath id="clip0">
<rect width="20" height="20" fill="white"/>
</clipPath>
</defs>
</svg>
