<svg width="20" height="20" viewBox="0 0 20 20" fill="none" xmlns="http://www.w3.org/2000/svg">
<rect width="20" height="20" rx="4" fill="#D52B1E"/>
<path d="M16.6246 13.3751L14.4166 11.1565C13.9155 10.65 13.1021 10.6491 12.5998 11.1544C12.5991 11.1551 12.5984 11.1558 12.5976 11.1565L11.3326 12.4322C11.2369 12.5289 11.0861 12.5423 10.9751 12.4639C10.2827 11.976 9.63455 11.4271 9.03824 10.8238C8.50417 10.2864 8.01288 9.70758 7.56887 9.09248C7.48839 8.98199 7.50008 8.82878 7.59635 8.73198L8.89284 7.42462C9.39339 6.9189 9.39339 6.10004 8.89284 5.59432L6.6849 3.36787C6.17611 2.87738 5.37469 2.87738 4.8659 3.36787L4.1666 4.07303C3.11048 5.12602 2.73346 6.68956 3.19225 8.11396C3.5346 9.15608 4.01853 10.1453 4.63017 11.0535C5.18081 11.8861 5.81253 12.6612 6.51598 13.3672C7.28075 14.1439 8.12788 14.8333 9.04215 15.4233C10.0472 16.0846 11.1507 16.5795 12.3109 16.8891C12.6091 16.9632 12.9152 17.0005 13.2223 17C14.2753 16.9935 15.2827 16.5661 16.0235 15.8115L16.6246 15.2054C17.1251 14.6997 17.1251 13.8808 16.6246 13.3751ZM16.0682 14.665C16.0677 14.6656 16.0672 14.6661 16.0667 14.6666L16.0706 14.6547L15.4695 15.2609C14.6972 16.0495 13.5724 16.374 12.5033 16.1166C11.4262 15.8259 10.4022 15.3631 9.47028 14.7459C8.60445 14.1879 7.80206 13.5356 7.07766 12.8007C6.41114 12.1335 5.81234 11.4009 5.29007 10.6138C4.7188 9.76691 4.26664 8.84433 3.94643 7.87231C3.57935 6.73041 3.88354 5.47742 4.7322 4.63562L5.4315 3.93046C5.62593 3.73352 5.94186 3.73282 6.13711 3.92888C6.13762 3.92939 6.13817 3.9299 6.13868 3.93046L8.34662 6.15691C8.54192 6.35297 8.54261 6.67155 8.34819 6.86844C8.34768 6.86895 8.34717 6.86946 8.34662 6.87002L7.05013 8.17738C6.67813 8.54841 6.63135 9.13802 6.94014 9.56398C7.40906 10.2129 7.92798 10.8236 8.49202 11.3903C9.12088 12.0272 9.80453 12.6066 10.535 13.1216C10.957 13.4185 11.5292 13.3684 11.8943 13.0028L13.1475 11.7192C13.342 11.5222 13.6579 11.5215 13.8532 11.7176C13.8537 11.7181 13.8542 11.7186 13.8547 11.7192L16.0666 13.9536C16.262 14.1496 16.2627 14.4681 16.0682 14.665Z" fill="white"/>
</svg>
