<svg width="20" height="20" viewBox="0 0 20 20" fill="none" xmlns="http://www.w3.org/2000/svg">
<g clip-path="url(#clip0)">
<path d="M20 4V15.8249C20 19 17.5 20 16 20H4C1.5 20 0 18 0 16V4C0 1.5 2 0 4 0H16C18.5 0 20 2 20 4Z" fill="#D52B1E"/>
<path d="M15.6166 4.38766C16.5309 4.10186 17.1432 4.51002 17.1432 5.12227C17.1432 5.12227 14.8002 15.2042 14.3921 16.0205C13.9839 16.8368 13.3717 16.4287 13.3717 16.4287L9.90227 13.9797C9.90227 13.9797 9.29002 14.5919 8.4737 15.4083C7.65737 16.2246 7.24921 15.4083 7.24921 15.4083L5.82064 11.5307C5.82064 11.5307 3.54704 11.2732 2.75941 10.5103C2.04113 9.81615 2.65337 9.40798 2.65337 9.40798L15.6166 4.38766ZM9.59215 11.2449L15.1024 5.9386L6.93909 10.6327L8.16358 13.898L9.59215 11.2449Z" fill="#D52B1E"/>
<path d="M16.1811 3.88635C15.9629 3.88635 15.732 3.9239 15.4949 3.99803C15.4862 4.00072 15.4777 4.00374 15.4693 4.00701L2.50608 9.02733C2.47832 9.03807 2.45183 9.05182 2.42706 9.06835C2.3882 9.09427 2.04612 9.33439 2.00587 9.7799C1.9744 10.1275 2.13257 10.472 2.47555 10.8035C3.20102 11.5062 4.86546 11.8084 5.52306 11.9034L6.86628 15.5494C6.87151 15.5635 6.87746 15.5774 6.8842 15.5908C6.99355 15.8094 7.30804 16.1793 7.79346 16.1793C8.11632 16.1793 8.44228 16.017 8.76236 15.6969L9.94783 14.5115L13.1363 16.7622C13.1393 16.7643 13.1423 16.7663 13.1453 16.7683C13.188 16.7968 13.417 16.9389 13.7289 16.9389C13.9755 16.9389 14.4371 16.8433 14.7572 16.2031C15.1749 15.3677 17.2999 6.25141 17.5408 5.21472C17.5478 5.18443 17.5514 5.15341 17.5514 5.12231C17.5514 4.40611 16.9751 3.88635 16.1811 3.88635ZM14.0271 15.8379C13.9622 15.9678 13.8577 16.1225 13.7289 16.1225C13.6724 16.1225 13.6173 16.0988 13.5953 16.0869L10.1377 13.6462C9.97534 13.5316 9.75416 13.5506 9.61367 13.691L8.1851 15.1196C7.95938 15.3453 7.82828 15.3629 7.79342 15.3629C7.71244 15.3629 7.64338 15.2695 7.61987 15.2337L6.20367 11.3896C6.15032 11.2449 6.01991 11.1426 5.86673 11.1251C5.27228 11.0574 3.60624 10.7623 3.04306 10.2168C2.82718 10.0081 2.81661 9.88844 2.81853 9.85668C2.82085 9.81844 2.84555 9.78464 2.86497 9.7637L15.7507 4.77333C15.9043 4.72643 16.0491 4.70268 16.1811 4.70268C16.3064 4.70268 16.7053 4.7308 16.7335 5.08215C15.7954 9.11705 14.3095 15.2731 14.0271 15.8379Z" fill="white"/>
<path d="M14.8983 5.58448L6.73505 10.2786C6.56178 10.3782 6.48615 10.5886 6.55631 10.7757L7.7808 14.041C7.837 14.1909 7.97566 14.2941 8.13541 14.3049C8.14472 14.3056 8.1539 14.3059 8.16309 14.3059C8.31243 14.3059 8.45088 14.224 8.52239 14.0912L9.92072 11.4944L15.3849 6.23231C15.5334 6.08933 15.552 5.85803 15.4282 5.69317C15.3043 5.52835 15.077 5.48178 14.8983 5.58448ZM9.30843 10.9506C9.27798 10.98 9.25223 11.0139 9.23219 11.0511L8.22962 12.913L7.44231 10.8135L12.4276 7.94685L9.30843 10.9506Z" fill="white"/>
</g>
<defs>
<clipPath id="clip0">
<rect width="20" height="20" fill="white"/>
</clipPath>
</defs>
</svg>
