<svg width="20" height="20" viewBox="0 0 20 20" fill="none" xmlns="http://www.w3.org/2000/svg">
<g clip-path="url(#clip0)">
<rect width="20" height="20" rx="4" fill="#C4C4C4"/>
<path d="M16 20H4C2 20 0 18.5 0 16V4C0 1 2.5 0 4 0H16C19 0 20 2.5 20 4V16C20 18.5 18 20 16 20Z" fill="#D52B1E"/>
<path d="M3.68721 6.36719H5.38225C5.64608 6.36719 5.87924 6.53793 5.95901 6.78945C6.12916 7.3259 6.46674 8.28215 6.9399 9.11461C7.32416 9.79062 7.7901 10.3577 8.13365 10.7331C8.30592 10.9213 8.61959 10.7988 8.61959 10.5436V8.09746C8.61959 7.73859 8.50701 7.38875 8.29772 7.09727L8.13186 6.86625C8.09338 6.81266 8.07272 6.74836 8.07272 6.68242C8.07272 6.50832 8.21385 6.36719 8.38795 6.36719H10.7583C10.9722 6.36719 11.1456 6.54063 11.1456 6.75457V9.89051C11.1456 10.0941 11.3562 10.2294 11.5414 10.1449L11.7026 10.0713C11.7303 10.0586 11.7554 10.0407 11.7763 10.0185C12.5912 9.1532 13.2518 8.15469 13.7294 7.06633L13.9067 6.66242C13.9854 6.48309 14.1628 6.36738 14.3587 6.36758L16.0322 6.36953C16.3462 6.36988 16.5465 6.70461 16.3986 6.98148L15.6254 8.42824C15.5254 8.61539 15.4141 8.79629 15.2922 8.96996L14.3874 10.2593C14.2267 10.4882 14.2577 10.8002 14.4602 10.993L15.1229 11.6241C15.6357 12.1124 16.0827 12.6656 16.4525 13.2695L16.6507 13.5933C16.8358 13.8956 16.6183 14.2839 16.2638 14.2839H14.8189C14.5267 14.2839 14.2468 14.1657 14.0431 13.9561L12.5983 12.4705C12.3121 12.1763 11.9459 11.9725 11.545 11.8845C11.3399 11.8395 11.1456 11.9957 11.1456 12.2057V13.6654C11.1456 14.007 10.8687 14.2838 10.5272 14.2838C9.3153 14.2838 8.13713 13.8849 7.17455 13.1487C5.46916 11.8443 4.23268 10.0221 3.65045 7.95559L3.33428 6.83328C3.26834 6.59934 3.44416 6.36719 3.68721 6.36719Z" fill="#D52B1E"/>
<path d="M16.2641 14.6745H14.8193C14.4239 14.6745 14.039 14.5119 13.7634 14.2285L12.3186 12.743C12.1031 12.5213 11.8341 12.3638 11.5366 12.2844V13.6654C11.5366 14.2218 11.0839 14.6745 10.5275 14.6745C9.2373 14.6745 7.96238 14.2428 6.93758 13.459C6.54992 13.1625 6.18019 12.8355 5.83867 12.4872C5.68766 12.3332 5.06975 11.4922 5.22381 11.3411C5.37791 11.1901 4.60754 9.53543 4.75855 9.68941C5.58703 11.3968 7.05394 12.5644 7.41223 12.8384C8.30156 13.5186 9.40793 13.8932 10.5275 13.8932C10.6532 13.8932 10.7554 13.791 10.7554 13.6654V12.2058C10.7554 11.9868 10.8533 11.7824 11.024 11.6451C11.1947 11.5078 11.4154 11.4561 11.6292 11.503C12.1062 11.6077 12.5382 11.8482 12.8787 12.1982L14.3235 13.6838C14.4529 13.8169 14.6336 13.8932 14.8193 13.8932H16.2641C16.2732 13.8932 16.3011 13.8932 16.3191 13.861C16.3371 13.8288 16.3227 13.805 16.3179 13.7973L16.1197 13.4735C15.7678 12.8987 15.3419 12.3716 14.8538 11.9069L14.1912 11.2759C13.8459 10.9471 13.7941 10.4252 14.068 10.0349L14.9728 8.74551C15.0852 8.58527 15.189 8.41656 15.2812 8.24402L16.0545 6.7973C16.0571 6.79227 16.0612 6.78469 16.0538 6.77238C16.0465 6.76012 16.0379 6.76008 16.0321 6.76008L14.3585 6.75816C14.3179 6.75816 14.2811 6.78215 14.2648 6.81934L14.0875 7.22324C13.5905 8.35547 12.9087 9.38602 12.061 10.2863C12.0051 10.3456 11.9392 10.3928 11.865 10.4266L11.7039 10.5002C11.4954 10.5954 11.2559 10.5782 11.0632 10.4543C10.8704 10.3304 10.7554 10.1196 10.7554 9.89043V6.75781H8.53523L8.61543 6.86945C8.87391 7.22949 9.01059 7.65414 9.01059 8.09746V10.5436C9.01059 10.8224 8.84262 11.0679 8.58269 11.1688C8.32309 11.2698 8.03387 11.2021 7.8459 10.9968C7.50277 10.622 7.00828 10.0246 6.6007 9.30758C6.10394 8.43371 5.75238 7.42875 5.58703 6.90754C5.55863 6.81797 5.47648 6.75781 5.38262 6.75781H3.71914L4.02676 7.84965C4.2059 8.48547 4.45211 9.10445 4.75855 9.68941C4.85867 9.88051 5.41494 11.241 5.22381 11.3411C5.03264 11.4413 5.98517 12.7253 5.88509 12.5342C4.00012 11 3.46855 8.74941 3.27476 8.06148L2.95855 6.93922C2.89367 6.70887 2.93934 6.46738 3.08375 6.27664C3.22828 6.08594 3.44828 5.97656 3.6875 5.97656H5.38258C5.81848 5.97656 6.19988 6.25578 6.33172 6.67133C6.48777 7.16332 6.81848 8.10984 7.27984 8.92156C7.58113 9.4516 7.93703 9.91262 8.22934 10.2521V8.09746C8.22934 7.81863 8.1434 7.55156 7.98078 7.32512L7.81492 7.09406C7.72828 6.97344 7.68246 6.83105 7.68246 6.68242C7.68246 6.2932 7.99906 5.97656 8.38828 5.97656H10.7586C11.1876 5.97656 11.5366 6.32559 11.5366 6.75457V9.70328C12.3025 8.87945 12.9198 7.93984 13.3721 6.90934L13.5493 6.50543C13.6902 6.18434 14.0078 5.97695 14.3584 5.97695H14.3594L16.033 5.97887C16.3189 5.97918 16.5773 6.12586 16.7241 6.37113C16.871 6.61645 16.8782 6.91344 16.7434 7.16555L15.9702 8.6123C15.8632 8.81254 15.7428 9.00836 15.6123 9.1943L14.7074 10.4837C14.6575 10.5549 14.6669 10.6501 14.7299 10.7101L15.3926 11.3411C15.9298 11.8527 16.3986 12.4329 16.7859 13.0655L16.9841 13.3893C17.1435 13.6496 17.1498 13.9766 17.0007 14.2429C16.8516 14.5091 16.5693 14.6745 16.2641 14.6745Z" fill="white"/>
<path d="M5.15413 11.4605C5.03249 11.4605 4.9126 11.4038 4.83632 11.2974L5.15378 11.0698L4.83464 11.2951C4.83448 11.2949 4.83214 11.2917 4.83198 11.2914C4.70628 11.1161 4.74651 10.872 4.92182 10.7463C5.09717 10.6206 5.34116 10.6608 5.4669 10.8361L5.47124 10.8422C5.59694 11.0175 5.55671 11.2615 5.38139 11.3873C5.31245 11.4367 5.23288 11.4605 5.15413 11.4605Z" fill="white"/>
</g>
<defs>
<clipPath id="clip0">
<rect width="20" height="20" fill="white"/>
</clipPath>
</defs>
</svg>
