<svg width="20" height="20" viewBox="0 0 20 20" fill="none" xmlns="http://www.w3.org/2000/svg">
<g clip-path="url(#clip0)">
<path d="M10.1026 4.73438C7.26363 4.73438 4.96387 7.01828 4.96387 9.84143C4.96387 10.9517 5.32866 11.9985 5.94721 12.8391L5.29694 14.7423L7.27949 14.1079C8.08837 14.6471 9.07171 14.9485 10.1185 14.9485C12.9575 14.9485 15.2731 12.6646 15.2731 9.84143C15.2573 7.01828 12.9417 4.73438 10.1026 4.73438ZM13.1161 11.9509C12.9892 12.2998 12.3707 12.6329 12.1011 12.6646C11.8314 12.6963 11.8314 12.8866 10.293 12.2998C8.77036 11.6971 7.80288 10.1586 7.72358 10.0476C7.64428 9.95246 7.10502 9.23874 7.10502 8.50916C7.10502 7.77958 7.48567 7.41479 7.62842 7.27204C7.77116 7.1293 7.92976 7.08172 8.02493 7.08172C8.12009 7.08172 8.23111 7.09758 8.31041 7.09758C8.40558 7.09758 8.5166 7.05 8.64348 7.35135C8.77036 7.65269 9.07171 8.38227 9.10343 8.46158C9.13515 8.54088 9.16687 8.62018 9.11929 8.71534C9.07171 8.81051 9.03999 8.87395 8.97655 8.96911C8.89725 9.04841 8.81795 9.15943 8.7545 9.22288C8.6752 9.30218 8.5959 9.38148 8.69106 9.52422C8.78622 9.66697 9.08757 10.1586 9.53166 10.5552C10.1026 11.0627 10.5943 11.2213 10.7371 11.3006C10.8798 11.3799 10.975 11.364 11.0543 11.2689C11.1494 11.1737 11.4349 10.8406 11.5301 10.682C11.6252 10.5393 11.7363 10.5552 11.8631 10.6027C12.0059 10.6503 12.7355 11.0151 12.8941 11.0944C13.0368 11.1737 13.1478 11.2054 13.1796 11.2689C13.2271 11.3006 13.2271 11.6019 13.1161 11.9509Z" fill="#D52B1E"/>
<path d="M15.4159 0.00761369H4.50004C2.00004 -0.000198806 3.75733e-05 0.999801 3.75733e-05 4.49989L0 15.9998C0 18.4998 2 19.9998 3.98101 19.9998H16C18 19.9998 20 18.4998 20 15.9157V4.4998C20 0.999801 18 -0.000198806 15.4159 0.00761369ZM10.1031 15.9157C9.02462 15.9157 8.02542 15.6461 7.13723 15.1544L3.7431 16.2329L4.85333 12.9815C4.29821 12.0616 3.98101 10.9831 3.98101 9.84117C3.98101 6.47876 6.72486 3.76663 10.1031 3.76663C13.4814 3.76663 16.2253 6.47876 16.2253 9.84117C16.2253 13.2036 13.4814 15.9157 10.1031 15.9157Z" fill="#D52B1E"/>
</g>
<defs>
<clipPath id="clip0">
<rect width="20" height="20" fill="white"/>
</clipPath>
</defs>
</svg>
